<?xml version="1.0" encoding="UTF-8" standalone="no"?>
<!DOCTYPE svg PUBLIC "-//W3C//DTD SVG 1.1//EN"
 "http://www.w3.org/Graphics/SVG/1.1/DTD/svg11.dtd">
<!-- Generated by graphviz version 2.43.0 (0)
 -->
<!-- Title: %3 Pages: 1 -->
<svg width="278pt" height="188pt"
 viewBox="0.00 0.00 278.00 188.00" xmlns="http://www.w3.org/2000/svg" xmlns:xlink="http://www.w3.org/1999/xlink">
<g id="graph0" class="graph" transform="scale(1 1) rotate(0) translate(4 184)">
<title>%3</title>
<!-- one1 -->
<g id="node1" class="node value">
<title>one1</title>
<path fill="#ffffff" stroke="#586e75" d="M42,-36C42,-36 12,-36 12,-36 6,-36 0,-30 0,-24 0,-24 0,-12 0,-12 0,-6 6,0 12,0 12,0 42,0 42,0 48,0 54,-6 54,-12 54,-12 54,-24 54,-24 54,-30 48,-36 42,-36"/>
<text text-anchor="middle" x="27" y="-14.3" font-family="Inter,Arial" font-size="14.00" fill="#586e75">1</text>
</g>
<!-- two1 -->
<g id="node2" class="node value">
<title>two1</title>
<path fill="#ffffff" stroke="#586e75" d="M114,-36C114,-36 84,-36 84,-36 78,-36 72,-30 72,-24 72,-24 72,-12 72,-12 72,-6 78,0 84,0 84,0 114,0 114,0 120,0 126,-6 126,-12 126,-12 126,-24 126,-24 126,-30 120,-36 114,-36"/>
<text text-anchor="middle" x="99" y="-14.3" font-family="Inter,Arial" font-size="14.00" fill="#586e75">2</text>
</g>
<!-- add1 -->
<g id="node3" class="node operator">
<title>add1</title>
<path fill="#586e75" stroke="#586e75" d="M114,-108C114,-108 84,-108 84,-108 78,-108 72,-102 72,-96 72,-96 72,-84 72,-84 72,-78 78,-72 84,-72 84,-72 114,-72 114,-72 120,-72 126,-78 126,-84 126,-84 126,-96 126,-96 126,-102 120,-108 114,-108"/>
<text text-anchor="middle" x="99" y="-86.3" font-family="Inter,Arial" font-size="14.00" fill="#ffffff">+</text>
</g>
<!-- add1&#45;&gt;one1 -->
<g id="edge1" class="edge">
<title>add1&#45;&gt;one1</title>
<path fill="none" stroke="#586e75" d="M81.2,-71.7C72.4,-63.14 61.62,-52.66 52,-43.3"/>
<polygon fill="#586e75" stroke="#586e75" points="54.2,-40.57 44.59,-36.1 49.32,-45.58 54.2,-40.57"/>
</g>
<!-- add1&#45;&gt;two1 -->
<g id="edge2" class="edge">
<title>add1&#45;&gt;two1</title>
<path fill="none" stroke="#586e75" d="M99,-71.7C99,-63.98 99,-54.71 99,-46.11"/>
<polygon fill="#586e75" stroke="#586e75" points="102.5,-46.1 99,-36.1 95.5,-46.1 102.5,-46.1"/>
</g>
<!-- two2 -->
<!-- one2 -->
<!-- add2 -->
<!-- add2&#45;&gt;two2 -->
<!-- add2&#45;&gt;one2 -->
<!-- eq -->
<g id="node7" class="node operator,disabled">
<title>eq</title>
<path fill="#d0dce3" stroke="#d0dce3" d="M150,-180C150,-180 120,-180 120,-180 114,-180 108,-174 108,-168 108,-168 108,-156 108,-156 108,-150 114,-144 120,-144 120,-144 150,-144 150,-144 156,-144 162,-150 162,-156 162,-156 162,-168 162,-168 162,-174 156,-180 150,-180"/>
<text text-anchor="middle" x="135" y="-158.3" font-family="Inter,Arial" font-size="14.00" fill="#ffffff">=</text>
</g>
<!-- eq&#45;&gt;add1 -->
<g id="edge5" class="edge">
<title>eq&#45;&gt;add1</title>
<path fill="none" stroke="#586e75" d="M126.1,-143.7C122,-135.73 117.05,-126.1 112.51,-117.26"/>
<polygon fill="#586e75" stroke="#586e75" points="115.48,-115.4 107.8,-108.1 109.26,-118.6 115.48,-115.4"/>
</g>
<!-- eq&#45;&gt;add2 -->
</g>
</svg>
