<?xml version="1.0" encoding="UTF-8" standalone="no"?>
<!DOCTYPE svg PUBLIC "-//W3C//DTD SVG 1.1//EN"
 "http://www.w3.org/Graphics/SVG/1.1/DTD/svg11.dtd">
<!-- Generated by graphviz version 2.43.0 (0)
 -->
<!-- Title: %3 Pages: 1 -->
<svg width="134pt" height="116pt"
 viewBox="0.00 0.00 134.00 116.00" xmlns="http://www.w3.org/2000/svg" xmlns:xlink="http://www.w3.org/1999/xlink">
<g id="graph0" class="graph" transform="scale(1 1) rotate(0) translate(4 112)">
<title>%3</title>
<!-- add1 -->
<g id="node1" class="node disabled">
<title>add1</title>
<path fill="#ffffff" stroke="#d0dce3" d="M78,-108C78,-108 48,-108 48,-108 42,-108 36,-102 36,-96 36,-96 36,-84 36,-84 36,-78 42,-72 48,-72 48,-72 78,-72 78,-72 84,-72 90,-78 90,-84 90,-84 90,-96 90,-96 90,-102 84,-108 78,-108"/>
<text text-anchor="middle" x="63" y="-86.3" font-family="Inter,Arial" font-size="14.00" fill="#d0dce3">+</text>
</g>
<!-- one -->
<g id="node2" class="node value">
<title>one</title>
<path fill="#ffffff" stroke="#586e75" d="M42,-36C42,-36 12,-36 12,-36 6,-36 0,-30 0,-24 0,-24 0,-12 0,-12 0,-6 6,0 12,0 12,0 42,0 42,0 48,0 54,-6 54,-12 54,-12 54,-24 54,-24 54,-30 48,-36 42,-36"/>
<text text-anchor="middle" x="27" y="-14.3" font-family="Inter,Arial" font-size="14.00" fill="#586e75">1</text>
</g>
<!-- add1&#45;&gt;one -->
<g id="edge1" class="edge">
<title>add1&#45;&gt;one</title>
<path fill="none" stroke="#586e75" d="M54.1,-71.7C50,-63.73 45.05,-54.1 40.51,-45.26"/>
<polygon fill="#586e75" stroke="#586e75" points="43.48,-43.4 35.8,-36.1 37.26,-46.6 43.48,-43.4"/>
</g>
<!-- two -->
<g id="node3" class="node value">
<title>two</title>
<path fill="#ffffff" stroke="#586e75" d="M114,-36C114,-36 84,-36 84,-36 78,-36 72,-30 72,-24 72,-24 72,-12 72,-12 72,-6 78,0 84,0 84,0 114,0 114,0 120,0 126,-6 126,-12 126,-12 126,-24 126,-24 126,-30 120,-36 114,-36"/>
<text text-anchor="middle" x="99" y="-14.3" font-family="Inter,Arial" font-size="14.00" fill="#586e75">2</text>
</g>
<!-- add1&#45;&gt;two -->
<g id="edge2" class="edge">
<title>add1&#45;&gt;two</title>
<path fill="none" stroke="#586e75" d="M71.9,-71.7C76,-63.73 80.95,-54.1 85.49,-45.26"/>
<polygon fill="#586e75" stroke="#586e75" points="88.74,-46.6 90.2,-36.1 82.52,-43.4 88.74,-46.6"/>
</g>
</g>
</svg>
