<?xml version="1.0" encoding="UTF-8" standalone="no"?>
<!DOCTYPE svg PUBLIC "-//W3C//DTD SVG 1.1//EN"
 "http://www.w3.org/Graphics/SVG/1.1/DTD/svg11.dtd">
<!-- Generated by graphviz version 2.43.0 (0)
 -->
<!-- Title: %3 Pages: 1 -->
<svg width="170pt" height="188pt"
 viewBox="0.00 0.00 170.00 188.00" xmlns="http://www.w3.org/2000/svg" xmlns:xlink="http://www.w3.org/1999/xlink">
<g id="graph0" class="graph" transform="scale(1 1) rotate(0) translate(4 184)">
<title>%3</title>
<!-- one -->
<g id="node1" class="node value">
<title>one</title>
<path fill="#ffffff" stroke="#586e75" d="M42,-108C42,-108 12,-108 12,-108 6,-108 0,-102 0,-96 0,-96 0,-84 0,-84 0,-78 6,-72 12,-72 12,-72 42,-72 42,-72 48,-72 54,-78 54,-84 54,-84 54,-96 54,-96 54,-102 48,-108 42,-108"/>
<text text-anchor="middle" x="27" y="-86.3" font-family="Inter,Arial" font-size="14.00" fill="#586e75">1</text>
</g>
<!-- two -->
<g id="node2" class="node value">
<title>two</title>
<path fill="#ffffff" stroke="#586e75" d="M78,-36C78,-36 48,-36 48,-36 42,-36 36,-30 36,-24 36,-24 36,-12 36,-12 36,-6 42,0 48,0 48,0 78,0 78,0 84,0 90,-6 90,-12 90,-12 90,-24 90,-24 90,-30 84,-36 78,-36"/>
<text text-anchor="middle" x="63" y="-14.3" font-family="Inter,Arial" font-size="14.00" fill="#586e75">2</text>
</g>
<!-- three -->
<g id="node3" class="node value">
<title>three</title>
<path fill="#ffffff" stroke="#586e75" d="M150,-36C150,-36 120,-36 120,-36 114,-36 108,-30 108,-24 108,-24 108,-12 108,-12 108,-6 114,0 120,0 120,0 150,0 150,0 156,0 162,-6 162,-12 162,-12 162,-24 162,-24 162,-30 156,-36 150,-36"/>
<text text-anchor="middle" x="135" y="-14.3" font-family="Inter,Arial" font-size="14.00" fill="#586e75">3</text>
</g>
<!-- add1 -->
<g id="node4" class="node operator">
<title>add1</title>
<path fill="#586e75" stroke="#586e75" d="M78,-180C78,-180 48,-180 48,-180 42,-180 36,-174 36,-168 36,-168 36,-156 36,-156 36,-150 42,-144 48,-144 48,-144 78,-144 78,-144 84,-144 90,-150 90,-156 90,-156 90,-168 90,-168 90,-174 84,-180 78,-180"/>
<text text-anchor="middle" x="63" y="-158.3" font-family="Inter,Arial" font-size="14.00" fill="#ffffff">+</text>
</g>
<!-- add1&#45;&gt;one -->
<g id="edge1" class="edge">
<title>add1&#45;&gt;one</title>
<path fill="none" stroke="#586e75" d="M54.1,-143.7C50,-135.73 45.05,-126.1 40.51,-117.26"/>
<polygon fill="#586e75" stroke="#586e75" points="43.48,-115.4 35.8,-108.1 37.26,-118.6 43.48,-115.4"/>
</g>
<!-- add2 -->
<g id="node5" class="node operator">
<title>add2</title>
<path fill="#586e75" stroke="#586e75" d="M114,-108C114,-108 84,-108 84,-108 78,-108 72,-102 72,-96 72,-96 72,-84 72,-84 72,-78 78,-72 84,-72 84,-72 114,-72 114,-72 120,-72 126,-78 126,-84 126,-84 126,-96 126,-96 126,-102 120,-108 114,-108"/>
<text text-anchor="middle" x="99" y="-86.3" font-family="Inter,Arial" font-size="14.00" fill="#ffffff">+</text>
</g>
<!-- add1&#45;&gt;add2 -->
<g id="edge2" class="edge">
<title>add1&#45;&gt;add2</title>
<path fill="none" stroke="#586e75" d="M71.9,-143.7C76,-135.73 80.95,-126.1 85.49,-117.26"/>
<polygon fill="#586e75" stroke="#586e75" points="88.74,-118.6 90.2,-108.1 82.52,-115.4 88.74,-118.6"/>
</g>
<!-- add2&#45;&gt;two -->
<g id="edge3" class="edge">
<title>add2&#45;&gt;two</title>
<path fill="none" stroke="#586e75" d="M90.1,-71.7C86,-63.73 81.05,-54.1 76.51,-45.26"/>
<polygon fill="#586e75" stroke="#586e75" points="79.48,-43.4 71.8,-36.1 73.26,-46.6 79.48,-43.4"/>
</g>
<!-- add2&#45;&gt;three -->
<g id="edge4" class="edge">
<title>add2&#45;&gt;three</title>
<path fill="none" stroke="#586e75" d="M107.9,-71.7C112,-63.73 116.95,-54.1 121.49,-45.26"/>
<polygon fill="#586e75" stroke="#586e75" points="124.74,-46.6 126.2,-36.1 118.52,-43.4 124.74,-46.6"/>
</g>
</g>
</svg>
