<?xml version="1.0" encoding="UTF-8" standalone="no"?>
<!DOCTYPE svg PUBLIC "-//W3C//DTD SVG 1.1//EN"
 "http://www.w3.org/Graphics/SVG/1.1/DTD/svg11.dtd">
<!-- Generated by graphviz version 2.43.0 (0)
 -->
<!-- Title: %3 Pages: 1 -->
<svg width="186pt" height="188pt"
 viewBox="0.00 0.00 186.00 188.00" xmlns="http://www.w3.org/2000/svg" xmlns:xlink="http://www.w3.org/1999/xlink">
<g id="graph0" class="graph" transform="scale(1 1) rotate(0) translate(4 184)">
<title>%3</title>
<!-- three -->
<!-- two -->
<!-- one -->
<!-- sub -->
<g id="node4" class="node operator,disabled">
<title>sub</title>
<path fill="#d0dce3" stroke="#d0dce3" d="M84,-180C84,-180 54,-180 54,-180 48,-180 42,-174 42,-168 42,-168 42,-156 42,-156 42,-150 48,-144 54,-144 54,-144 84,-144 84,-144 90,-144 96,-150 96,-156 96,-156 96,-168 96,-168 96,-174 90,-180 84,-180"/>
<text text-anchor="middle" x="69" y="-158.3" font-family="Inter,Arial" font-size="14.00" fill="#ffffff">Sub</text>
</g>
<!-- sub&#45;&gt;three -->
<g id="edge1" class="edge">
<title>sub&#45;&gt;three</title>
<path fill="none" stroke="#586e75" d="M59.61,-143.7C55.24,-135.64 49.94,-125.89 45.1,-116.98"/>
<polygon fill="#586e75" stroke="#586e75" points="48.13,-115.22 40.29,-108.1 41.98,-118.56 48.13,-115.22"/>
</g>
<!-- add -->
<!-- sub&#45;&gt;add -->
<!-- add&#45;&gt;two -->
<!-- add&#45;&gt;one -->
</g>
</svg>
