<?xml version="1.0" encoding="UTF-8" standalone="no"?>
<!DOCTYPE svg PUBLIC "-//W3C//DTD SVG 1.1//EN"
 "http://www.w3.org/Graphics/SVG/1.1/DTD/svg11.dtd">
<!-- Generated by graphviz version 2.43.0 (0)
 -->
<!-- Title: %3 Pages: 1 -->
<svg width="310pt" height="188pt"
 viewBox="0.00 0.00 310.00 188.00" xmlns="http://www.w3.org/2000/svg" xmlns:xlink="http://www.w3.org/1999/xlink">
<g id="graph0" class="graph" transform="scale(1 1) rotate(0) translate(4 184)">
<title>%3</title>
<!-- three1 -->
<g id="node1" class="node value,disabled">
<title>three1</title>
<path fill="#ffffff" stroke="#d0dce3" d="M50,-36C50,-36 12,-36 12,-36 6,-36 0,-30 0,-24 0,-24 0,-12 0,-12 0,-6 6,0 12,0 12,0 50,0 50,0 56,0 62,-6 62,-12 62,-12 62,-24 62,-24 62,-30 56,-36 50,-36"/>
<text text-anchor="middle" x="31" y="-14.3" font-family="Inter,Arial" font-size="14.00" fill="#d0dce3">Num(3)</text>
</g>
<!-- three2 -->
<g id="node2" class="node value,disabled">
<title>three2</title>
<path fill="#ffffff" stroke="#d0dce3" d="M130,-36C130,-36 92,-36 92,-36 86,-36 80,-30 80,-24 80,-24 80,-12 80,-12 80,-6 86,0 92,0 92,0 130,0 130,0 136,0 142,-6 142,-12 142,-12 142,-24 142,-24 142,-30 136,-36 130,-36"/>
<text text-anchor="middle" x="111" y="-14.3" font-family="Inter,Arial" font-size="14.00" fill="#d0dce3">Num(3)</text>
</g>
<!-- add -->
<g id="node3" class="node operator,disabled">
<title>add</title>
<path fill="#d0dce3" stroke="#d0dce3" d="M126,-108C126,-108 96,-108 96,-108 90,-108 84,-102 84,-96 84,-96 84,-84 84,-84 84,-78 90,-72 96,-72 96,-72 126,-72 126,-72 132,-72 138,-78 138,-84 138,-84 138,-96 138,-96 138,-102 132,-108 126,-108"/>
<text text-anchor="middle" x="111" y="-86.3" font-family="Inter,Arial" font-size="14.00" fill="#ffffff">Add</text>
</g>
<!-- add&#45;&gt;three1 -->
<g id="edge1" class="edge disabled">
<title>add&#45;&gt;three1</title>
<path fill="none" stroke="#d0dce3" d="M91.22,-71.7C81.25,-62.97 68.99,-52.24 58.14,-42.75"/>
<polygon fill="#d0dce3" stroke="#d0dce3" points="60.38,-40.06 50.55,-36.1 55.77,-45.32 60.38,-40.06"/>
</g>
<!-- add&#45;&gt;three2 -->
<g id="edge2" class="edge disabled">
<title>add&#45;&gt;three2</title>
<path fill="none" stroke="#d0dce3" d="M111,-71.7C111,-63.98 111,-54.71 111,-46.11"/>
<polygon fill="#d0dce3" stroke="#d0dce3" points="114.5,-46.1 111,-36.1 107.5,-46.1 114.5,-46.1"/>
</g>
<!-- two -->
<!-- three3 -->
<!-- mult -->
<!-- mult&#45;&gt;two -->
<!-- mult&#45;&gt;three3 -->
<!-- eq -->
<g id="node7" class="node operator,disabled">
<title>eq</title>
<path fill="#d0dce3" stroke="#d0dce3" d="M166,-180C166,-180 136,-180 136,-180 130,-180 124,-174 124,-168 124,-168 124,-156 124,-156 124,-150 130,-144 136,-144 136,-144 166,-144 166,-144 172,-144 178,-150 178,-156 178,-156 178,-168 178,-168 178,-174 172,-180 166,-180"/>
<text text-anchor="middle" x="151" y="-158.3" font-family="Inter,Arial" font-size="14.00" fill="#ffffff">Eq</text>
</g>
<!-- eq&#45;&gt;add -->
<g id="edge5" class="edge disabled">
<title>eq&#45;&gt;add</title>
<path fill="none" stroke="#d0dce3" d="M141.11,-143.7C136.51,-135.64 130.94,-125.89 125.85,-116.98"/>
<polygon fill="#d0dce3" stroke="#d0dce3" points="128.77,-115.05 120.77,-108.1 122.7,-118.52 128.77,-115.05"/>
</g>
<!-- eq&#45;&gt;mult -->
<g id="edge6" class="edge">
<title>eq&#45;&gt;mult</title>
<path fill="none" stroke="#586e75" d="M160.89,-143.7C165.49,-135.64 171.06,-125.89 176.15,-116.98"/>
<polygon fill="#586e75" stroke="#586e75" points="179.3,-118.52 181.23,-108.1 173.23,-115.05 179.3,-118.52"/>
</g>
</g>
</svg>
