<?xml version="1.0" encoding="UTF-8" standalone="no"?>
<!DOCTYPE svg PUBLIC "-//W3C//DTD SVG 1.1//EN"
 "http://www.w3.org/Graphics/SVG/1.1/DTD/svg11.dtd">
<!-- Generated by graphviz version 2.43.0 (0)
 -->
<!-- Title: %3 Pages: 1 -->
<svg width="294pt" height="188pt"
 viewBox="0.00 0.00 294.00 188.00" xmlns="http://www.w3.org/2000/svg" xmlns:xlink="http://www.w3.org/1999/xlink">
<g id="graph0" class="graph" transform="scale(1 1) rotate(0) translate(4 184)">
<title>%3</title>
<!-- one -->
<g id="node1" class="node value,disabled">
<title>one</title>
<path fill="#ffffff" stroke="#d0dce3" d="M50,-36C50,-36 12,-36 12,-36 6,-36 0,-30 0,-24 0,-24 0,-12 0,-12 0,-6 6,0 12,0 12,0 50,0 50,0 56,0 62,-6 62,-12 62,-12 62,-24 62,-24 62,-30 56,-36 50,-36"/>
<text text-anchor="middle" x="31" y="-14.3" font-family="Inter,Arial" font-size="14.00" fill="#d0dce3">Num(1)</text>
</g>
<!-- two -->
<g id="node2" class="node value,disabled">
<title>two</title>
<path fill="#ffffff" stroke="#d0dce3" d="M130,-36C130,-36 92,-36 92,-36 86,-36 80,-30 80,-24 80,-24 80,-12 80,-12 80,-6 86,0 92,0 92,0 130,0 130,0 136,0 142,-6 142,-12 142,-12 142,-24 142,-24 142,-30 136,-36 130,-36"/>
<text text-anchor="middle" x="111" y="-14.3" font-family="Inter,Arial" font-size="14.00" fill="#d0dce3">Num(2)</text>
</g>
<!-- add -->
<g id="node3" class="node operator,disabled">
<title>add</title>
<path fill="#d0dce3" stroke="#d0dce3" d="M126,-108C126,-108 96,-108 96,-108 90,-108 84,-102 84,-96 84,-96 84,-84 84,-84 84,-78 90,-72 96,-72 96,-72 126,-72 126,-72 132,-72 138,-78 138,-84 138,-84 138,-96 138,-96 138,-102 132,-108 126,-108"/>
<text text-anchor="middle" x="111" y="-86.3" font-family="Inter,Arial" font-size="14.00" fill="#ffffff">Add</text>
</g>
<!-- add&#45;&gt;one -->
<g id="edge1" class="edge disabled">
<title>add&#45;&gt;one</title>
<path fill="none" stroke="#d0dce3" d="M91.22,-71.7C81.25,-62.97 68.99,-52.24 58.14,-42.75"/>
<polygon fill="#d0dce3" stroke="#d0dce3" points="60.38,-40.06 50.55,-36.1 55.77,-45.32 60.38,-40.06"/>
</g>
<!-- add&#45;&gt;two -->
<g id="edge2" class="edge disabled">
<title>add&#45;&gt;two</title>
<path fill="none" stroke="#d0dce3" d="M111,-71.7C111,-63.98 111,-54.71 111,-46.11"/>
<polygon fill="#d0dce3" stroke="#d0dce3" points="114.5,-46.1 111,-36.1 107.5,-46.1 114.5,-46.1"/>
</g>
<!-- three -->
<g id="node4" class="node value">
<title>three</title>
<path fill="#ffffff" stroke="#586e75" d="M202,-36C202,-36 172,-36 172,-36 166,-36 160,-30 160,-24 160,-24 160,-12 160,-12 160,-6 166,0 172,0 172,0 202,0 202,0 208,0 214,-6 214,-12 214,-12 214,-24 214,-24 214,-30 208,-36 202,-36"/>
<text text-anchor="middle" x="187" y="-14.3" font-family="Inter,Arial" font-size="14.00" fill="#586e75">3</text>
</g>
<!-- negone -->
<g id="node5" class="node value">
<title>negone</title>
<path fill="#ffffff" stroke="#586e75" d="M274,-36C274,-36 244,-36 244,-36 238,-36 232,-30 232,-24 232,-24 232,-12 232,-12 232,-6 238,0 244,0 244,0 274,0 274,0 280,0 286,-6 286,-12 286,-12 286,-24 286,-24 286,-30 280,-36 274,-36"/>
<text text-anchor="middle" x="259" y="-14.3" font-family="Inter,Arial" font-size="14.00" fill="#586e75">&#45;1</text>
</g>
<!-- sub -->
<g id="node6" class="node operator">
<title>sub</title>
<path fill="#586e75" stroke="#586e75" d="M202,-108C202,-108 172,-108 172,-108 166,-108 160,-102 160,-96 160,-96 160,-84 160,-84 160,-78 166,-72 172,-72 172,-72 202,-72 202,-72 208,-72 214,-78 214,-84 214,-84 214,-96 214,-96 214,-102 208,-108 202,-108"/>
<text text-anchor="middle" x="187" y="-86.3" font-family="Inter,Arial" font-size="14.00" fill="#ffffff">&#45;</text>
</g>
<!-- sub&#45;&gt;three -->
<g id="edge3" class="edge">
<title>sub&#45;&gt;three</title>
<path fill="none" stroke="#586e75" d="M187,-71.7C187,-63.98 187,-54.71 187,-46.11"/>
<polygon fill="#586e75" stroke="#586e75" points="190.5,-46.1 187,-36.1 183.5,-46.1 190.5,-46.1"/>
</g>
<!-- sub&#45;&gt;negone -->
<g id="edge4" class="edge">
<title>sub&#45;&gt;negone</title>
<path fill="none" stroke="#586e75" d="M204.8,-71.7C213.6,-63.14 224.38,-52.66 234,-43.3"/>
<polygon fill="#586e75" stroke="#586e75" points="236.68,-45.58 241.41,-36.1 231.8,-40.57 236.68,-45.58"/>
</g>
<!-- eq -->
<g id="node7" class="node operator,disabled">
<title>eq</title>
<path fill="#d0dce3" stroke="#d0dce3" d="M164,-180C164,-180 134,-180 134,-180 128,-180 122,-174 122,-168 122,-168 122,-156 122,-156 122,-150 128,-144 134,-144 134,-144 164,-144 164,-144 170,-144 176,-150 176,-156 176,-156 176,-168 176,-168 176,-174 170,-180 164,-180"/>
<text text-anchor="middle" x="149" y="-158.3" font-family="Inter,Arial" font-size="14.00" fill="#ffffff">Eq</text>
</g>
<!-- eq&#45;&gt;add -->
<g id="edge5" class="edge disabled">
<title>eq&#45;&gt;add</title>
<path fill="none" stroke="#d0dce3" d="M139.61,-143.7C135.24,-135.64 129.94,-125.89 125.1,-116.98"/>
<polygon fill="#d0dce3" stroke="#d0dce3" points="128.13,-115.22 120.29,-108.1 121.98,-118.56 128.13,-115.22"/>
</g>
<!-- eq&#45;&gt;sub -->
<g id="edge6" class="edge disabled">
<title>eq&#45;&gt;sub</title>
<path fill="none" stroke="#d0dce3" d="M158.39,-143.7C162.76,-135.64 168.06,-125.89 172.9,-116.98"/>
<polygon fill="#d0dce3" stroke="#d0dce3" points="176.02,-118.56 177.71,-108.1 169.87,-115.22 176.02,-118.56"/>
</g>
</g>
</svg>
