<?xml version="1.0" encoding="UTF-8" standalone="no"?>
<!DOCTYPE svg PUBLIC "-//W3C//DTD SVG 1.1//EN"
 "http://www.w3.org/Graphics/SVG/1.1/DTD/svg11.dtd">
<!-- Generated by graphviz version 2.43.0 (0)
 -->
<!-- Title: %3 Pages: 1 -->
<svg width="178pt" height="188pt"
 viewBox="0.00 0.00 178.00 188.00" xmlns="http://www.w3.org/2000/svg" xmlns:xlink="http://www.w3.org/1999/xlink">
<g id="graph0" class="graph" transform="scale(1 1) rotate(0) translate(4 184)">
<title>%3</title>
<!-- three -->
<g id="node1" class="node value">
<title>three</title>
<path fill="#ffffff" stroke="#586e75" d="M50,-108C50,-108 12,-108 12,-108 6,-108 0,-102 0,-96 0,-96 0,-84 0,-84 0,-78 6,-72 12,-72 12,-72 50,-72 50,-72 56,-72 62,-78 62,-84 62,-84 62,-96 62,-96 62,-102 56,-108 50,-108"/>
<text text-anchor="middle" x="31" y="-86.3" font-family="Inter,Arial" font-size="14.00" fill="#586e75">Num(3)</text>
</g>
<!-- two -->
<g id="node2" class="node value,disabled">
<title>two</title>
<path fill="#ffffff" stroke="#d0dce3" d="M86,-36C86,-36 56,-36 56,-36 50,-36 44,-30 44,-24 44,-24 44,-12 44,-12 44,-6 50,0 56,0 56,0 86,0 86,0 92,0 98,-6 98,-12 98,-12 98,-24 98,-24 98,-30 92,-36 86,-36"/>
<text text-anchor="middle" x="71" y="-14.3" font-family="Inter,Arial" font-size="14.00" fill="#d0dce3">2</text>
</g>
<!-- one -->
<g id="node3" class="node value,disabled">
<title>one</title>
<path fill="#ffffff" stroke="#d0dce3" d="M158,-36C158,-36 128,-36 128,-36 122,-36 116,-30 116,-24 116,-24 116,-12 116,-12 116,-6 122,0 128,0 128,0 158,0 158,0 164,0 170,-6 170,-12 170,-12 170,-24 170,-24 170,-30 164,-36 158,-36"/>
<text text-anchor="middle" x="143" y="-14.3" font-family="Inter,Arial" font-size="14.00" fill="#d0dce3">1</text>
</g>
<!-- sub -->
<g id="node4" class="node operator,disabled">
<title>sub</title>
<path fill="#d0dce3" stroke="#d0dce3" d="M84,-180C84,-180 54,-180 54,-180 48,-180 42,-174 42,-168 42,-168 42,-156 42,-156 42,-150 48,-144 54,-144 54,-144 84,-144 84,-144 90,-144 96,-150 96,-156 96,-156 96,-168 96,-168 96,-174 90,-180 84,-180"/>
<text text-anchor="middle" x="69" y="-158.3" font-family="Inter,Arial" font-size="14.00" fill="#ffffff">Sub</text>
</g>
<!-- sub&#45;&gt;three -->
<g id="edge1" class="edge disabled">
<title>sub&#45;&gt;three</title>
<path fill="none" stroke="#d0dce3" d="M59.61,-143.7C55.24,-135.64 49.94,-125.89 45.1,-116.98"/>
<polygon fill="#d0dce3" stroke="#d0dce3" points="48.13,-115.22 40.29,-108.1 41.98,-118.56 48.13,-115.22"/>
</g>
<!-- add -->
<g id="node5" class="node operator,disabled">
<title>add</title>
<path fill="#d0dce3" stroke="#d0dce3" d="M122,-108C122,-108 92,-108 92,-108 86,-108 80,-102 80,-96 80,-96 80,-84 80,-84 80,-78 86,-72 92,-72 92,-72 122,-72 122,-72 128,-72 134,-78 134,-84 134,-84 134,-96 134,-96 134,-102 128,-108 122,-108"/>
<text text-anchor="middle" x="107" y="-86.3" font-family="Inter,Arial" font-size="14.00" fill="#ffffff">+</text>
</g>
<!-- sub&#45;&gt;add -->
<g id="edge2" class="edge disabled">
<title>sub&#45;&gt;add</title>
<path fill="none" stroke="#d0dce3" d="M78.39,-143.7C82.76,-135.64 88.06,-125.89 92.9,-116.98"/>
<polygon fill="#d0dce3" stroke="#d0dce3" points="96.02,-118.56 97.71,-108.1 89.87,-115.22 96.02,-118.56"/>
</g>
<!-- add&#45;&gt;two -->
<g id="edge3" class="edge disabled">
<title>add&#45;&gt;two</title>
<path fill="none" stroke="#d0dce3" d="M98.1,-71.7C94,-63.73 89.05,-54.1 84.51,-45.26"/>
<polygon fill="#d0dce3" stroke="#d0dce3" points="87.48,-43.4 79.8,-36.1 81.26,-46.6 87.48,-43.4"/>
</g>
<!-- add&#45;&gt;one -->
<g id="edge4" class="edge disabled">
<title>add&#45;&gt;one</title>
<path fill="none" stroke="#d0dce3" d="M115.9,-71.7C120,-63.73 124.95,-54.1 129.49,-45.26"/>
<polygon fill="#d0dce3" stroke="#d0dce3" points="132.74,-46.6 134.2,-36.1 126.52,-43.4 132.74,-46.6"/>
</g>
</g>
</svg>
