<?xml version="1.0" encoding="UTF-8" standalone="no"?>
<!DOCTYPE svg PUBLIC "-//W3C//DTD SVG 1.1//EN"
 "http://www.w3.org/Graphics/SVG/1.1/DTD/svg11.dtd">
<!-- Generated by graphviz version 2.43.0 (0)
 -->
<!-- Title: %3 Pages: 1 -->
<svg width="142pt" height="188pt"
 viewBox="0.00 0.00 142.00 188.00" xmlns="http://www.w3.org/2000/svg" xmlns:xlink="http://www.w3.org/1999/xlink">
<g id="graph0" class="graph" transform="scale(1 1) rotate(0) translate(4 184)">
<title>%3</title>
<!-- one -->
<g id="node1" class="node value,disabled">
<title>one</title>
<path fill="#ffffff" stroke="#d0dce3" d="M50,-108C50,-108 12,-108 12,-108 6,-108 0,-102 0,-96 0,-96 0,-84 0,-84 0,-78 6,-72 12,-72 12,-72 50,-72 50,-72 56,-72 62,-78 62,-84 62,-84 62,-96 62,-96 62,-102 56,-108 50,-108"/>
<text text-anchor="middle" x="31" y="-86.3" font-family="Inter,Arial" font-size="14.00" fill="#d0dce3">Num(1)</text>
</g>
<!-- two -->
<g id="node2" class="node value">
<title>two</title>
<path fill="#ffffff" stroke="#586e75" d="M122,-108C122,-108 92,-108 92,-108 86,-108 80,-102 80,-96 80,-96 80,-84 80,-84 80,-78 86,-72 92,-72 92,-72 122,-72 122,-72 128,-72 134,-78 134,-84 134,-84 134,-96 134,-96 134,-102 128,-108 122,-108"/>
<text text-anchor="middle" x="107" y="-86.3" font-family="Inter,Arial" font-size="14.00" fill="#586e75">2</text>
</g>
<!-- c -->
<!-- two&#45;&gt;c -->
<!-- eq -->
<g id="node3" class="node operator,disabled">
<title>eq</title>
<path fill="#d0dce3" stroke="#d0dce3" d="M84,-180C84,-180 54,-180 54,-180 48,-180 42,-174 42,-168 42,-168 42,-156 42,-156 42,-150 48,-144 54,-144 54,-144 84,-144 84,-144 90,-144 96,-150 96,-156 96,-156 96,-168 96,-168 96,-174 90,-180 84,-180"/>
<text text-anchor="middle" x="69" y="-158.3" font-family="Inter,Arial" font-size="14.00" fill="#ffffff">Eq</text>
</g>
<!-- eq&#45;&gt;one -->
<g id="edge1" class="edge disabled">
<title>eq&#45;&gt;one</title>
<path fill="none" stroke="#d0dce3" d="M59.61,-143.7C55.24,-135.64 49.94,-125.89 45.1,-116.98"/>
<polygon fill="#d0dce3" stroke="#d0dce3" points="48.13,-115.22 40.29,-108.1 41.98,-118.56 48.13,-115.22"/>
</g>
<!-- eq&#45;&gt;two -->
<g id="edge2" class="edge">
<title>eq&#45;&gt;two</title>
<path fill="none" stroke="#586e75" d="M78.39,-143.7C82.76,-135.64 88.06,-125.89 92.9,-116.98"/>
<polygon fill="#586e75" stroke="#586e75" points="96.02,-118.56 97.71,-108.1 89.87,-115.22 96.02,-118.56"/>
</g>
</g>
</svg>
