<?xml version="1.0" encoding="UTF-8" standalone="no"?>
<!DOCTYPE svg PUBLIC "-//W3C//DTD SVG 1.1//EN"
 "http://www.w3.org/Graphics/SVG/1.1/DTD/svg11.dtd">
<!-- Generated by graphviz version 2.43.0 (0)
 -->
<!-- Title: %3 Pages: 1 -->
<svg width="278pt" height="188pt"
 viewBox="0.00 0.00 278.00 188.00" xmlns="http://www.w3.org/2000/svg" xmlns:xlink="http://www.w3.org/1999/xlink">
<g id="graph0" class="graph" transform="scale(1 1) rotate(0) translate(4 184)">
<title>%3</title>
<!-- one1 -->
<g id="node1" class="node value,disabled">
<title>one1</title>
<path fill="#ffffff" stroke="#d0dce3" d="M42,-36C42,-36 12,-36 12,-36 6,-36 0,-30 0,-24 0,-24 0,-12 0,-12 0,-6 6,0 12,0 12,0 42,0 42,0 48,0 54,-6 54,-12 54,-12 54,-24 54,-24 54,-30 48,-36 42,-36"/>
<text text-anchor="middle" x="27" y="-14.3" font-family="Inter,Arial" font-size="14.00" fill="#d0dce3">1</text>
</g>
<!-- two1 -->
<g id="node2" class="node value,disabled">
<title>two1</title>
<path fill="#ffffff" stroke="#d0dce3" d="M114,-36C114,-36 84,-36 84,-36 78,-36 72,-30 72,-24 72,-24 72,-12 72,-12 72,-6 78,0 84,0 84,0 114,0 114,0 120,0 126,-6 126,-12 126,-12 126,-24 126,-24 126,-30 120,-36 114,-36"/>
<text text-anchor="middle" x="99" y="-14.3" font-family="Inter,Arial" font-size="14.00" fill="#d0dce3">2</text>
</g>
<!-- add1 -->
<g id="node3" class="node operator,disabled">
<title>add1</title>
<path fill="#d0dce3" stroke="#d0dce3" d="M114,-108C114,-108 84,-108 84,-108 78,-108 72,-102 72,-96 72,-96 72,-84 72,-84 72,-78 78,-72 84,-72 84,-72 114,-72 114,-72 120,-72 126,-78 126,-84 126,-84 126,-96 126,-96 126,-102 120,-108 114,-108"/>
<text text-anchor="middle" x="99" y="-86.3" font-family="Inter,Arial" font-size="14.00" fill="#ffffff">+</text>
</g>
<!-- add1&#45;&gt;one1 -->
<g id="edge1" class="edge disabled">
<title>add1&#45;&gt;one1</title>
<path fill="none" stroke="#d0dce3" d="M81.2,-71.7C72.4,-63.14 61.62,-52.66 52,-43.3"/>
<polygon fill="#d0dce3" stroke="#d0dce3" points="54.2,-40.57 44.59,-36.1 49.32,-45.58 54.2,-40.57"/>
</g>
<!-- add1&#45;&gt;two1 -->
<g id="edge2" class="edge disabled">
<title>add1&#45;&gt;two1</title>
<path fill="none" stroke="#d0dce3" d="M99,-71.7C99,-63.98 99,-54.71 99,-46.11"/>
<polygon fill="#d0dce3" stroke="#d0dce3" points="102.5,-46.1 99,-36.1 95.5,-46.1 102.5,-46.1"/>
</g>
<!-- two2 -->
<g id="node4" class="node value,disabled">
<title>two2</title>
<path fill="#ffffff" stroke="#d0dce3" d="M186,-36C186,-36 156,-36 156,-36 150,-36 144,-30 144,-24 144,-24 144,-12 144,-12 144,-6 150,0 156,0 156,0 186,0 186,0 192,0 198,-6 198,-12 198,-12 198,-24 198,-24 198,-30 192,-36 186,-36"/>
<text text-anchor="middle" x="171" y="-14.3" font-family="Inter,Arial" font-size="14.00" fill="#d0dce3">2</text>
</g>
<!-- one2 -->
<g id="node5" class="node value,disabled">
<title>one2</title>
<path fill="#ffffff" stroke="#d0dce3" d="M258,-36C258,-36 228,-36 228,-36 222,-36 216,-30 216,-24 216,-24 216,-12 216,-12 216,-6 222,0 228,0 228,0 258,0 258,0 264,0 270,-6 270,-12 270,-12 270,-24 270,-24 270,-30 264,-36 258,-36"/>
<text text-anchor="middle" x="243" y="-14.3" font-family="Inter,Arial" font-size="14.00" fill="#d0dce3">1</text>
</g>
<!-- add2 -->
<g id="node6" class="node operator,disabled">
<title>add2</title>
<path fill="#d0dce3" stroke="#d0dce3" d="M186,-108C186,-108 156,-108 156,-108 150,-108 144,-102 144,-96 144,-96 144,-84 144,-84 144,-78 150,-72 156,-72 156,-72 186,-72 186,-72 192,-72 198,-78 198,-84 198,-84 198,-96 198,-96 198,-102 192,-108 186,-108"/>
<text text-anchor="middle" x="171" y="-86.3" font-family="Inter,Arial" font-size="14.00" fill="#ffffff">+</text>
</g>
<!-- add2&#45;&gt;two2 -->
<g id="edge3" class="edge disabled">
<title>add2&#45;&gt;two2</title>
<path fill="none" stroke="#d0dce3" d="M171,-71.7C171,-63.98 171,-54.71 171,-46.11"/>
<polygon fill="#d0dce3" stroke="#d0dce3" points="174.5,-46.1 171,-36.1 167.5,-46.1 174.5,-46.1"/>
</g>
<!-- add2&#45;&gt;one2 -->
<g id="edge4" class="edge disabled">
<title>add2&#45;&gt;one2</title>
<path fill="none" stroke="#d0dce3" d="M188.8,-71.7C197.6,-63.14 208.38,-52.66 218,-43.3"/>
<polygon fill="#d0dce3" stroke="#d0dce3" points="220.68,-45.58 225.41,-36.1 215.8,-40.57 220.68,-45.58"/>
</g>
<!-- eq -->
<g id="node7" class="node operator">
<title>eq</title>
<path fill="#586e75" stroke="#586e75" d="M150,-180C150,-180 120,-180 120,-180 114,-180 108,-174 108,-168 108,-168 108,-156 108,-156 108,-150 114,-144 120,-144 120,-144 150,-144 150,-144 156,-144 162,-150 162,-156 162,-156 162,-168 162,-168 162,-174 156,-180 150,-180"/>
<text text-anchor="middle" x="135" y="-158.3" font-family="Inter,Arial" font-size="14.00" fill="#ffffff">Eq</text>
</g>
<!-- eq&#45;&gt;add1 -->
<g id="edge5" class="edge disabled">
<title>eq&#45;&gt;add1</title>
<path fill="none" stroke="#d0dce3" d="M126.1,-143.7C122,-135.73 117.05,-126.1 112.51,-117.26"/>
<polygon fill="#d0dce3" stroke="#d0dce3" points="115.48,-115.4 107.8,-108.1 109.26,-118.6 115.48,-115.4"/>
</g>
<!-- eq&#45;&gt;add2 -->
<g id="edge6" class="edge disabled">
<title>eq&#45;&gt;add2</title>
<path fill="none" stroke="#d0dce3" d="M143.9,-143.7C148,-135.73 152.95,-126.1 157.49,-117.26"/>
<polygon fill="#d0dce3" stroke="#d0dce3" points="160.74,-118.6 162.2,-108.1 154.52,-115.4 160.74,-118.6"/>
</g>
</g>
</svg>
