<?xml version="1.0" encoding="UTF-8" standalone="no"?>
<!DOCTYPE svg PUBLIC "-//W3C//DTD SVG 1.1//EN"
 "http://www.w3.org/Graphics/SVG/1.1/DTD/svg11.dtd">
<!-- Generated by graphviz version 2.43.0 (0)
 -->
<!-- Title: %3 Pages: 1 -->
<svg width="156pt" height="116pt"
 viewBox="0.00 0.00 155.50 116.00" xmlns="http://www.w3.org/2000/svg" xmlns:xlink="http://www.w3.org/1999/xlink">
<g id="graph0" class="graph" transform="scale(1 1) rotate(0) translate(4 112)">
<title>%3</title>
<!-- three -->
<g id="node1" class="node value">
<title>three</title>
<path fill="#ffffff" stroke="#586e75" d="M50,-36C50,-36 12,-36 12,-36 6,-36 0,-30 0,-24 0,-24 0,-12 0,-12 0,-6 6,0 12,0 12,0 50,0 50,0 56,0 62,-6 62,-12 62,-12 62,-24 62,-24 62,-30 56,-36 50,-36"/>
<text text-anchor="middle" x="31" y="-14.3" font-family="Inter,Arial" font-size="14.00" fill="#586e75">Num(3)</text>
</g>
<!-- negone -->
<g id="node2" class="node value">
<title>negone</title>
<path fill="#ffffff" stroke="#586e75" d="M135.5,-36C135.5,-36 92.5,-36 92.5,-36 86.5,-36 80.5,-30 80.5,-24 80.5,-24 80.5,-12 80.5,-12 80.5,-6 86.5,0 92.5,0 92.5,0 135.5,0 135.5,0 141.5,0 147.5,-6 147.5,-12 147.5,-12 147.5,-24 147.5,-24 147.5,-30 141.5,-36 135.5,-36"/>
<text text-anchor="middle" x="114" y="-14.3" font-family="Inter,Arial" font-size="14.00" fill="#586e75">Num(&#45;1)</text>
</g>
<!-- sub -->
<g id="node3" class="node operator">
<title>sub</title>
<path fill="#586e75" stroke="#586e75" d="M87,-108C87,-108 57,-108 57,-108 51,-108 45,-102 45,-96 45,-96 45,-84 45,-84 45,-78 51,-72 57,-72 57,-72 87,-72 87,-72 93,-72 99,-78 99,-84 99,-84 99,-96 99,-96 99,-102 93,-108 87,-108"/>
<text text-anchor="middle" x="72" y="-86.3" font-family="Inter,Arial" font-size="14.00" fill="#ffffff">Sub</text>
</g>
<!-- sub&#45;&gt;three -->
<g id="edge1" class="edge">
<title>sub&#45;&gt;three</title>
<path fill="none" stroke="#586e75" d="M61.87,-71.7C57.15,-63.64 51.44,-53.89 46.22,-44.98"/>
<polygon fill="#586e75" stroke="#586e75" points="49.09,-42.96 41.02,-36.1 43.05,-46.5 49.09,-42.96"/>
</g>
<!-- sub&#45;&gt;negone -->
<g id="edge2" class="edge">
<title>sub&#45;&gt;negone</title>
<path fill="none" stroke="#586e75" d="M82.38,-71.7C87.26,-63.56 93.19,-53.69 98.58,-44.7"/>
<polygon fill="#586e75" stroke="#586e75" points="101.59,-46.48 103.74,-36.1 95.59,-42.88 101.59,-46.48"/>
</g>
</g>
</svg>
