<?xml version="1.0" encoding="UTF-8" standalone="no"?>
<!DOCTYPE svg PUBLIC "-//W3C//DTD SVG 1.1//EN"
 "http://www.w3.org/Graphics/SVG/1.1/DTD/svg11.dtd">
<!-- Generated by graphviz version 2.43.0 (0)
 -->
<!-- Title: %3 Pages: 1 -->
<svg width="134pt" height="188pt"
 viewBox="0.00 0.00 134.00 188.00" xmlns="http://www.w3.org/2000/svg" xmlns:xlink="http://www.w3.org/1999/xlink">
<g id="graph0" class="graph" transform="scale(1 1) rotate(0) translate(4 184)">
<title>%3</title>
<!-- A -->
<g id="node1" class="node">
<title>A</title>
<path fill="#ffffff" stroke="#586e75" d="M78,-180C78,-180 48,-180 48,-180 42,-180 36,-174 36,-168 36,-168 36,-156 36,-156 36,-150 42,-144 48,-144 48,-144 78,-144 78,-144 84,-144 90,-150 90,-156 90,-156 90,-168 90,-168 90,-174 84,-180 78,-180"/>
<text text-anchor="middle" x="63" y="-158.3" font-family="Inter,Arial" font-size="14.00" fill="#586e75">A</text>
</g>
<!-- B -->
<g id="node2" class="node">
<title>B</title>
<path fill="#ffffff" stroke="#586e75" d="M42,-108C42,-108 12,-108 12,-108 6,-108 0,-102 0,-96 0,-96 0,-84 0,-84 0,-78 6,-72 12,-72 12,-72 42,-72 42,-72 48,-72 54,-78 54,-84 54,-84 54,-96 54,-96 54,-102 48,-108 42,-108"/>
<text text-anchor="middle" x="27" y="-86.3" font-family="Inter,Arial" font-size="14.00" fill="#586e75">B</text>
</g>
<!-- A&#45;&gt;B -->
<!-- C -->
<!-- A&#45;&gt;C -->
<!-- D -->
<!-- C&#45;&gt;D -->
</g>
</svg>
